<?xml version="1.0" encoding="UTF-8" standalone="no" ?>
<!DOCTYPE svg PUBLIC "-//W3C//DTD SVG 1.1//EN" "http://www.w3.org/Graphics/SVG/1.1/DTD/svg11.dtd">
<svg xmlns="http://www.w3.org/2000/svg" xmlns:xlink="http://www.w3.org/1999/xlink" version="1.1" width="135.6323" height="149.0926" xml:space="preserve">
<desc>Created with Fabric.js 1.6.0-rc.1</desc>
<defs></defs>
<g style="stroke: none; stroke-width: 1; stroke-dasharray: none; stroke-linecap: butt; stroke-linejoin: miter; stroke-miterlimit: 10; fill: none; fill-rule: nonzero; opacity: 1;" transform="translate(9.999999999999993 10) scale(2.87 2.87)" >
  <polygon points="125,60.12 144.64,71.6 144.55,92.78 136.24,104.09 113.76,104.09 105.45,92.76 105.36,71.7 " style="stroke: none; stroke-width: 1; stroke-dasharray: none; stroke-linecap: butt; stroke-linejoin: miter; stroke-miterlimit: 10; fill: #31274a; fill-rule: nonzero; opacity: 0;" transform="  matrix(1.000000025453713 0 0 1.000000025453713 -105.35700268172683 -60.11700153020086) "/>
  <path d="m 134.244 100.19 l -18.487 0 l -6.873 -9.378 l -0.079 -17.299 l 16.195 -9.55 l 0.189 0.11 l 16.006 9.355 l -0.078 17.398 l -6.873 9.364 z m -18.107 -0.75 l 17.727 0 l 6.504 -8.86 l 0.076 -16.721 l -15.441 -9.026 l -15.445 9.108 l 0.076 16.625 l 6.503 8.874 z" style="stroke: none; stroke-width: 1; stroke-dasharray: none; stroke-linecap: butt; stroke-linejoin: miter; stroke-miterlimit: 10; fill: #f5f5f5; fill-rule: nonzero; opacity: 0;" transform=" matrix(1.000000025453713 0 0 1.000000025453713 -105.35700268172683 -60.11700153020086) " stroke-linecap="round" />
  <path d="m 115.504 71.913 l 0 19.182 l 5.305 4.568 l 0 -15.529 c 0 0 0 -7.079 -5.305 -8.221 z" style="stroke: none; stroke-width: 1; stroke-dasharray: none; stroke-linecap: butt; stroke-linejoin: miter; stroke-miterlimit: 10; fill: #ff1717; fill-rule: nonzero; opacity: 1;" transform=" matrix(1.000000025453713 0 0 1.000000025453713 -105.35700268172683 -60.11700153020086) " stroke-linecap="round" />
  <path d="m 134.379 95.305 l -15.123 0 l -3.602 -4.422 l 12.242 0 c 0 0 5.583 0 6.483 4.422 z" style="stroke: none; stroke-width: 1; stroke-dasharray: none; stroke-linecap: butt; stroke-linejoin: miter; stroke-miterlimit: 10; fill: #ff0005; fill-rule: nonzero; opacity: 1;" transform=" matrix(1.000000025453713 0 0 1.000000025453713 -105.35700268172683 -60.11700153020086) " stroke-linecap="round" />
</g>
<g style="stroke: none; stroke-width: 1; stroke-dasharray: none; stroke-linecap: butt; stroke-linejoin: miter; stroke-miterlimit: 10; fill: none; fill-rule: nonzero; opacity: 1;" transform="translate(48.710000000000036 43.890000000000036) scale(1.22 1.22)" >
  <polygon points="124.53,55.12 101.85,68.61 101.85,95.6 124.53,109.09 " style="stroke: none; stroke-width: 1; stroke-dasharray: none; stroke-linecap: butt; stroke-linejoin: miter; stroke-miterlimit: 10; fill: #cbebe9; fill-rule: nonzero; opacity: 0;" transform="  matrix(1 0 0 1 -101.85 -55.117) "/>
  <polygon points="148.15,68.61 124.53,55.12 124.53,109.09 148.15,95.6 " style="stroke: none; stroke-width: 1; stroke-dasharray: none; stroke-linecap: butt; stroke-linejoin: miter; stroke-miterlimit: 10; fill: #d3cec2; fill-rule: nonzero; opacity: 0;" transform="  matrix(1 0 0 1 -101.85 -55.117) "/>
  <polygon points="125.81,65.97 143.78,73.73 125.79,71.14 113.66,76.56 113.66,88.66 125.76,94.62 144.49,90.14 125.54,99.78 108.94,91.58 108.94,73.51 " style="stroke: none; stroke-width: 1; stroke-dasharray: none; stroke-linecap: butt; stroke-linejoin: miter; stroke-miterlimit: 10; fill: #9e344b; fill-rule: nonzero; opacity: 1;" transform="  matrix(1 0 0 1 -101.85 -55.117) "/>
</g>
</svg>